# xmcd
#
# Track frame offsets: 
#        150
#        17765
#        35760
#        51704
#        66690
#        85536
#        101014
#        116592
#        130918
#        147492
#        161970
#
# Disc length: 2400 seconds
#
# Revision: 0
# Processed by: cddbd v1.5.2PL0 Copyright (c) Steve Scherf et al.
# Submitted via: ExactAudioCopy v0.95b4
#
DISCID=a9095e0b
DTITLE=Blue Sky Forever - One
DYEAR=2008
DGENRE=Country
TTITLE0=One Life To Live
TTITLE1=Blues On A Summer's Day
TTITLE2=First Time Love
TTITLE3=Friends For Life
TTITLE4=Changed
TTITLE5=Leaves Leave Levitating
TTITLE6=Last Man On Earth
TTITLE7=Baby Car
TTITLE8=Peace Of Mind
TTITLE9=Wrap Your Arms Around Me And Mine
TTITLE10=Rocky Ride
EXTD=
EXTT0=
EXTT1=
EXTT2=
EXTT3=
EXTT4=
EXTT5=
EXTT6=
EXTT7=
EXTT8=
EXTT9=
EXTT10=
PLAYORDER=
